<svg version="1.1" viewBox="0.0 0.0 512.0 512.0" fill="none" stroke="none" stroke-linecap="square" stroke-miterlimit="10" xmlns:xlink="http://www.w3.org/1999/xlink" xmlns="http://www.w3.org/2000/svg"><clipPath id="p.0"><path d="m0 0l512.0 0l0 512.0l-512.0 0l0 -512.0z" clip-rule="nonzero"/></clipPath><g clip-path="url(#p.0)"><path fill="#000000" fill-opacity="0.0" d="m0 0l512.0 0l0 512.0l-512.0 0z" fill-rule="evenodd"/><path fill="#ffffff" d="m172.14088 379.509c-15.303314 6.772217 -52.950966 2.0339355 -56.87818 -39.00177c-3.9272156 -41.035736 18.824226 -165.76976 33.314903 -207.2126c14.490692 -41.442825 46.45146 -54.71692 53.629227 -41.444397c7.1777496 13.272522 -11.375336 86.40892 -10.562698 121.07953c0.8126373 34.67061 18.689041 59.180923 15.438507 86.94411c-3.2505493 27.763214 -19.638428 72.862915 -34.941757 79.63513z" fill-rule="evenodd"/><path fill="#ffd700" d="m153.72624 373.01236l0 0c0 -67.77014 78.572266 -122.708664 175.49605 -122.708664l0 0c96.92383 0 175.49606 54.938522 175.49606 122.708664l0 0c0 67.77011 -78.572235 122.70865 -175.49606 122.70865l0 0c-96.92378 0 -175.49605 -54.938538 -175.49605 -122.70865z" fill-rule="evenodd"/><path fill="#fefefe" d="m153.72153 366.50745l350.99213 0l0 13.007874l-350.99213 0z" fill-rule="evenodd"/><path fill="#ffffff" d="m178.51886 328.5211l17.61258 1.2207031E-4l5.4424896 -16.74643l5.4424744 16.74643l17.612595 -1.2207031E-4l-14.248962 10.349762l5.4427032 16.746338l-14.24881 -10.349915l-14.248825 10.349915l5.4427032 -16.746338z" fill-rule="evenodd"/><path fill="#ffd700" d="m103.56276 77.25984l0 0c0 -33.676323 27.28595 -60.97638 60.944885 -60.97638l0 0c16.16359 0 31.665146 6.4242783 43.09453 17.859568c11.429382 11.435287 17.850357 26.94487 17.850357 43.11681l0 0c0 33.676323 -27.285965 60.97638 -60.944885 60.97638l0 0c-33.658936 0 -60.944885 -27.300056 -60.944885 -60.97638z" fill-rule="evenodd"/><path fill="#ffd700" d="m120.55499 118.218216l0 -60.787407l-113.29134 60.787407z" fill-rule="evenodd"/><path fill="#ffffff" d="m222.19629 293.06854l17.61258 9.1552734E-5l5.4424896 -16.74643l5.4424744 16.74643l17.612595 -9.1552734E-5l-14.248962 10.349731l5.442688 16.746368l-14.248795 -10.349945l-14.248825 10.349945l5.4427032 -16.746368z" fill-rule="evenodd"/><path fill="#ffffff" d="m273.1871 276.3065l17.61258 1.2207031E-4l5.4424744 -16.74643l5.442505 16.74643l17.61258 -1.2207031E-4l-14.248962 10.349762l5.4427185 16.746338l-14.24884 -10.349915l-14.24881 10.349915l5.4427185 -16.746338z" fill-rule="evenodd"/><path fill="#ffffff" d="m273.1871 459.36172l17.61258 1.2207031E-4l5.4424744 -16.74643l5.442505 16.74643l17.61258 -1.2207031E-4l-14.248962 10.349762l5.4427185 16.746338l-14.24884 -10.349915l-14.24881 10.349915l5.4427185 -16.746338z" fill-rule="evenodd"/><path fill="#ffffff" d="m223.00888 438.53497l17.612595 9.1552734E-5l5.4424744 -16.746399l5.4424744 16.746399l17.612595 -9.1552734E-5l-14.248947 10.349731l5.4427032 16.746368l-14.248825 -10.349945l-14.24881 10.349945l5.4427032 -16.746368z" fill-rule="evenodd"/><path fill="#ffffff" d="m179.33145 407.14716l17.612595 9.1552734E-5l5.4424744 -16.74643l5.4424744 16.74643l17.612595 -9.1552734E-5l-14.248947 10.349731l5.442688 16.746338l-14.24881 -10.349915l-14.24881 10.349915l5.4427032 -16.746338z" fill-rule="evenodd"/><path fill="#ffffff" d="m476.69806 329.27203l-17.61258 1.2207031E-4l-5.442505 -16.74643l-5.4424744 16.74643l-17.61258 -1.2207031E-4l14.248962 10.349762l-5.4427185 16.746338l14.24881 -10.349915l14.24884 10.349915l-5.4427185 -16.746338z" fill-rule="evenodd"/><path fill="#ffffff" d="m433.02063 293.8195l-17.61258 9.1552734E-5l-5.442505 -16.74643l-5.4424744 16.74643l-17.61258 -9.1552734E-5l14.248962 10.349731l-5.4427185 16.746368l14.24881 -10.349945l14.24884 10.349945l-5.4427185 -16.746368z" fill-rule="evenodd"/><path fill="#ffffff" d="m382.02982 277.05743l-17.61261 1.2207031E-4l-5.4424744 -16.74643l-5.4424744 16.74643l-17.61258 -1.2207031E-4l14.248962 10.349762l-5.4427185 16.746338l14.24881 -10.349915l14.24884 10.349915l-5.4427185 -16.746338z" fill-rule="evenodd"/><path fill="#ffffff" d="m382.02982 460.11267l-17.61261 1.2207031E-4l-5.4424744 -16.74643l-5.4424744 16.74643l-17.61258 -1.2207031E-4l14.248962 10.349762l-5.4427185 16.746338l14.24881 -10.349915l14.24884 10.349915l-5.4427185 -16.746338z" fill-rule="evenodd"/><path fill="#ffffff" d="m432.20804 439.28592l-17.61261 9.1552734E-5l-5.4424744 -16.746399l-5.4424744 16.746399l-17.61258 -9.1552734E-5l14.248932 10.349731l-5.442688 16.746368l14.24881 -10.349945l14.24881 10.349945l-5.442688 -16.746368z" fill-rule="evenodd"/><path fill="#ffffff" d="m475.88547 407.8981l-17.61261 9.1552734E-5l-5.4424744 -16.74643l-5.4424744 16.74643l-17.61258 -9.1552734E-5l14.248962 10.349731l-5.4427185 16.746368l14.24881 -10.349945l14.24881 10.349945l-5.442688 -16.746368z" fill-rule="evenodd"/><path fill="#ffffff" d="m125.59669 56.395016l17.612587 1.18255615E-4l5.4424744 -16.74643l5.4424896 16.74643l17.612595 -1.18255615E-4l-14.248962 10.349743l5.4427032 16.746353l-14.248825 -10.34993l-14.24881 10.34993l5.4427032 -16.746353z" fill-rule="evenodd"/></g></svg>