<?xml version="1.0" encoding="utf-8"?>
<svg viewBox="0 0 500 500" xmlns="http://www.w3.org/2000/svg" xmlns:bx="https://boxy-svg.com">
  <path style="fill: rgb(0, 14, 255); stroke: rgb(0, 14, 255);" d="M 155.093 212.224 C 209.807 188.74 226.724 267.811 346.303 257.788 C 350.716 281.519 335.413 296.053 302.924 305.14 C 271.439 310.717 256.475 309.758 212.742 300.226 C 181.586 293.435 166.412 282.39 150.527 269.85 C 136.638 257.428 138.752 217.068 155.093 212.224 Z" transform="matrix(0.9999999999999999, 0, 0, 0.9999999999999999, -5.684341886080802e-14, 0)"/>
  <path style="stroke: rgb(217, 0, 0); fill: rgb(217, 0, 0);" d="M 141.689 226.699 C 142.767 255.094 189.891 201.864 257.307 267.328 C 301.985 310.712 327.021 255.396 387.557 273.275 C 288.134 202.633 208.557 192.969 212.329 195.649 C 184.948 179.22 226.931 135.477 215.77 111.223 C 210.286 86.623 163.437 71.742 149.837 78.721 C 125.115 82.088 136.681 97.769 119.863 103.755 C 100.068 113.891 82.305 111.016 120.024 122.626 C 138.35 128.266 167.752 117.208 167.027 134.814 C 163.419 167.609 142.729 194.488 141.689 226.699 Z" transform="matrix(0.9999999999999999, 0, 0, 0.9999999999999999, -5.684341886080802e-14, 0)"/>
  <ellipse style="fill: rgb(255, 255, 255); stroke: rgb(255, 255, 255);" cx="168.618" cy="97.553" rx="8.162" ry="5.186" transform="matrix(0.9999999999999999, 0, 0, 0.9999999999999999, -5.684341886080802e-14, 0)"/>
  <path style="fill: rgb(0, 14, 255); paint-order: fill; stroke: rgb(0, 14, 255);" d="M 265.205 292.948 L 275.084 293.194 L 273.084 356.372 L 254.215 374.367 L 252.673 369.841 C 253.407 369.841 243.891 368.833 243.891 368.833 L 248.36 361.731 L 243.515 359.158 L 263.861 351.196 L 265.205 292.948 Z" transform="matrix(0.9999999999999999, 0, 0, 0.9999999999999999, -5.684341886080802e-14, 0)"/>
  <path style="fill: rgb(0, 14, 255); paint-order: fill; stroke: rgb(0, 14, 255);" d="M 238.842 292.689 L 237.949 341.748 L 218.595 355.153 L 219.086 350.158 L 209.058 349.252 L 214.1 342.333 L 207.532 340.036 L 229.338 333.661 L 229.807 292.448 L 238.842 292.689 Z" transform="matrix(0.9999999999999999, 0, 0, 0.9999999999999999, -5.684341886080802e-14, 0)"/>
  <path style="fill: rgba(216, 216, 216, 0); stroke-width: 10px; stroke: rgb(255, 255, 255);" d="M 140.937 233.793 C 149.637 234.128 162.892 240.004 177.852 235.253 C 199.892 229.742 232.33 244.843 254.53 265.131 C 280.276 286.909 314.02 282.4 345.576 271.77 C 377.132 261.14 384.862 275.284 384.862 275.284" transform="matrix(0.9999999999999999, 0, 0, 0.9999999999999999, -5.684341886080802e-14, 0)"/>
  <path d="M 159.132 208.041 L 161.697 215.419 L 169.506 215.578 L 163.282 220.297 L 165.544 227.774 L 159.132 223.312 L 152.72 227.774 L 154.982 220.297 L 148.758 215.578 L 156.567 215.419 Z" style="stroke: rgba(0, 0, 0, 0); fill: rgb(255, 255, 255); transform-origin: 159.132px 217.908px;" transform="matrix(0.996195018291, -0.087149038911, 0.087149038911, 0.996195018291, 0.189488938818, 0.757906902324)" bx:shape="star 159.132 218.949 10.908 10.908 0.4 5 1@74d7a0f6"/>
  <path d="M 243.789 221.787 L 246.354 229.165 L 254.163 229.324 L 247.939 234.043 L 250.201 241.52 L 243.789 237.058 L 237.377 241.52 L 239.639 234.043 L 233.415 229.324 L 241.224 229.165 Z" style="fill: rgb(255, 255, 255); stroke: rgba(0, 0, 0, 0); transform-origin: 243.789px 231.653px;" transform="matrix(0.874509215355, 0.485009014606, -0.485009014606, 0.874509215355, 1.935046227448, 3.809683599794)" bx:shape="star 243.789 232.695 10.908 10.908 0.4 5 1@c0c227a2"/>
  <path d="M 300.074 251.779 L 302.639 259.157 L 310.448 259.316 L 304.224 264.035 L 306.486 271.512 L 300.074 267.05 L 293.662 271.512 L 295.924 264.035 L 289.7 259.316 L 297.509 259.157 Z" style="stroke: rgba(0, 0, 0, 0); fill: rgb(255, 255, 255); transform-origin: 300.074px 261.646px;" transform="matrix(0.988775014877, -0.149415060878, 0.149415060878, 0.988775014877, 14.510978080563, -0.877822357888)" bx:shape="star 300.074 262.687 10.908 10.908 0.4 5 1@006e8b7b"/>
</svg>
